<?xml version="1.0" encoding="UTF-8"?>
<svg width="500px" height="256px" viewBox="0 0 500 256" version="1.1" xmlns="http://www.w3.org/2000/svg" xmlns:xlink="http://www.w3.org/1999/xlink">
    <!-- Generator: Sketch 40.3 (33839) - http://www.bohemiancoding.com/sketch -->
    <title>Group-38</title>
    <desc>Created with Sketch.</desc>
    <defs>
        <polygon id="path-1" points="0.498191872 27.4635457 23.7042621 27.4635457 23.7042621 0.203230238 0.498191872 0.203230238"></polygon>
        <polygon id="path-3" points="0.591530758 27.4635457 21.0284882 27.4635457 21.0284882 0.203141646 0.591530758 0.203141646"></polygon>
        <polygon id="path-5" points="0.216489433 27.4635457 22.370279 27.4635457 22.370279 0.203053053 0.216489433 0.203053053"></polygon>
        <polygon id="path-7" points="0 255.145198 500.000092 255.145198 500.000092 0.799986507 0 0.799986507"></polygon>
        <polygon id="path-9" points="0 255.145198 500.000092 255.145198 500.000092 0.799986507 0 0.799986507"></polygon>
        <polygon id="path-11" points="0 255.145198 500.000092 255.145198 500.000092 0.799986507 0 0.799986507"></polygon>
        <polygon id="path-13" points="0 255.145198 500.000092 255.145198 500.000092 0.799986507 0 0.799986507"></polygon>
        <polygon id="path-15" points="0 255.145198 500.000092 255.145198 500.000092 0.799986507 0 0.799986507"></polygon>
        <polygon id="path-17" points="0 255.145198 500.000092 255.145198 500.000092 0.799986507 0 0.799986507"></polygon>
        <polygon id="path-19" points="0 255.145198 500.000092 255.145198 500.000092 0.799986507 0 0.799986507"></polygon>
        <polygon id="path-21" points="0 255.145198 500.000092 255.145198 500.000092 0.799986507 0 0.799986507"></polygon>
        <polygon id="path-23" points="0 255.145198 500.000092 255.145198 500.000092 0.799986507 0 0.799986507"></polygon>
    </defs>
    <g id="Page-1" stroke="none" stroke-width="1" fill="none" fill-rule="evenodd">
        <g id="Group-38" transform="translate(0.000000, 0.085935)">
            <path d="M160.079651,173.084212 C167.009975,173.084212 171.061166,168.950506 171.061166,163.557906 L171.061166,163.37895 C171.061166,157.177504 166.74025,153.852643 159.809927,153.852643 L149.09991,153.852643 L149.09991,173.084212 L160.079651,173.084212 L160.079651,173.084212 L160.079651,173.084212 Z M135.239263,141.360273 L160.980212,141.360273 C176.011144,141.360273 185.100151,150.25669 185.100151,163.108744 L185.100151,163.288586 C185.100151,177.846923 173.760186,185.395854 159.629814,185.395854 L149.09991,185.395854 L149.09991,204.268625 L135.239263,204.268625 L135.239263,141.360273 L135.239263,141.360273 L135.239263,141.360273 Z" id="Fill-3" fill="#003087"></path>
            <path d="M243.013382,172.994114 L243.013382,172.815158 C243.013382,162.030844 235.092885,153.044063 223.932145,153.044063 C212.771405,153.044063 205.031907,161.850116 205.031907,172.63443 L205.031907,172.815158 C205.031907,183.598586 212.952404,192.585367 224.112257,192.585367 C235.272997,192.585367 243.013382,183.778429 243.013382,172.994114 M190.540424,172.994114 L190.540424,172.815158 C190.540424,154.930189 204.671683,140.282374 224.112257,140.282374 C243.553717,140.282374 257.503978,154.751233 257.503978,172.63443 L257.503978,172.815158 C257.503978,190.698356 243.373606,205.346171 223.932145,205.346171 C204.492458,205.346171 190.540424,190.878198 190.540424,172.994114" id="Fill-5" fill="#003087"></path>
            <polygon id="Fill-7" fill="#003087" points="259.074058 141.360451 273.924879 141.360451 286.976353 183.958182 301.105836 141.181495 312.986138 141.181495 327.11651 183.958182 340.167097 141.360451 354.657693 141.360451 333.147159 204.717964 321.086746 204.717964 306.865874 163.558083 292.645891 204.717964 280.585478 204.717964"></polygon>
            <polygon id="Fill-9" fill="#003087" points="361.747454 141.360451 409.268659 141.360451 409.268659 153.672092 375.517601 153.672092 375.517601 166.433782 405.219244 166.433782 405.219244 178.745424 375.517601 178.745424 375.517601 191.956275 409.718498 191.956275 409.718498 204.268803 361.747454 204.268803"></polygon>
            <path d="M448.541705,171.916126 C455.291031,171.916126 459.162111,168.321059 459.162111,163.018823 L459.162111,162.838981 C459.162111,156.907741 455.021307,153.8522 448.271094,153.8522 L434.500947,153.8522 L434.500947,171.916126 L448.541705,171.916126 L448.541705,171.916126 Z M420.641186,141.360716 L449.442268,141.360716 C457.451488,141.360716 463.662251,143.607412 467.802169,147.742004 C471.312135,151.245821 473.20287,156.189259 473.20287,162.120499 L473.20287,162.299455 C473.20287,172.454766 467.711669,178.836053 459.702447,181.802116 L475.091829,204.268182 L458.892386,204.268182 L445.391075,184.138289 L434.500947,184.138289 L434.500947,204.268182 L420.641186,204.268182 L420.641186,141.360716 L420.641186,141.360716 Z" id="Fill-11" fill="#003087"></path>
            <path d="M475.092273,16.6612472 C375.769758,36.4314563 367.481053,-7.46857833 282.839896,2.21542221 L245.623232,20.9101235 C333.490437,10.945286 339.931886,63.7204756 459.363959,30.8448396 C464.82943,29.3405461 470.050019,28.0152085 475.092273,26.8218732 L475.092273,16.6612472 L475.092273,16.6612472 Z" id="Fill-13" fill="#BA0C2F"></path>
            <path d="M475.092273,38.4183111 C460.521824,40.1325679 443.932877,43.2589824 424.580143,48.3175903 C302.859845,80.1380947 299.948771,28.8450505 209.146538,39.2333582 L171.930762,57.9280594 C259.797966,47.964108 266.239415,100.738412 385.67149,67.8627756 C424.646686,57.1342744 452.441621,54.6324341 475.092273,55.9559998 L475.092273,38.4183111 L475.092273,38.4183111 Z" id="Fill-15" fill="#BA0C2F"></path>
            <path d="M475.092273,79.0951886 C445.929193,72.6306244 412.265087,69.2907029 350.887671,85.3365007 C229.167374,117.156119 226.256301,65.8630751 135.454954,76.2513829 L98.2382911,94.94697 C186.105496,84.9821324 192.546944,137.757322 311.979019,104.881686 C400.402531,80.5410114 431.287766,98.536721 475.092273,107.503126 L475.092273,79.0951886 L475.092273,79.0951886 Z" id="Fill-17" fill="#BA0C2F"></path>
            <g id="Group-21" transform="translate(206.729664, 227.681652)">
                <g id="Fill-19-Clipped">
                    <mask id="mask-2" fill="white">
                        <use xlink:href="#path-1"></use>
                    </mask>
                    <g id="path-1"></g>
                    <path d="M12.3154983,13.7161806 C15.7482754,13.7161806 17.9326893,11.9248487 17.9326893,9.15988981 L17.9326893,9.08192877 C17.9326893,6.1610478 15.8263536,4.56461848 12.2764592,4.56461848 L5.29556222,4.56461848 L5.29556222,13.7161806 L12.3154983,13.7161806 L12.3154983,13.7161806 Z M0.498191872,0.203230238 L12.66685,0.203230238 C16.0987399,0.203230238 18.7906617,1.21495182 20.5447585,2.92832271 C21.9883171,4.40958232 22.8072505,6.4339114 22.8072505,8.80906514 L22.8072505,8.8879121 C22.8072505,13.3662419 20.1162159,16.0523538 16.3338616,17.1438083 L23.7042621,27.4639 L18.0098802,27.4639 L11.3022567,17.9615132 L5.29556222,17.9615132 L5.29556222,27.4639 L0.498191872,27.4639 L0.498191872,0.203230238 L0.498191872,0.203230238 Z" id="Fill-19" fill="#768692" mask="url(#mask-2)"></path>
                </g>
            </g>
            <g id="Group-24" transform="translate(236.008973, 227.681652)">
                <g id="Fill-22-Clipped">
                    <mask id="mask-4" fill="white">
                        <use xlink:href="#path-3"></use>
                    </mask>
                    <g id="path-3"></g>
                    <polygon id="Fill-22" fill="#768692" mask="url(#mask-4)" points="0.591530758 0.203141646 20.8332928 0.203141646 20.8332928 4.48656884 5.38801386 4.48656884 5.38801386 11.5739355 19.0783088 11.5739355 19.0783088 15.8582486 5.38801386 15.8582486 5.38801386 23.1794983 21.0284882 23.1794983 21.0284882 27.4638114 0.591530758 27.4638114"></polygon>
                </g>
            </g>
            <g id="Group-27" transform="translate(261.739273, 227.681652)">
                <g id="Fill-25-Clipped">
                    <mask id="mask-6" fill="white">
                        <use xlink:href="#path-5"></use>
                    </mask>
                    <g id="path-5"></g>
                    <polygon id="Fill-25" fill="#768692" mask="url(#mask-6)" points="8.87517952 4.64240232 0.216489433 4.64240232 0.216489433 0.203053053 22.370279 0.203053053 22.370279 4.64240232 13.7124762 4.64240232 13.7124762 27.4637227 8.87517952 27.4637227"></polygon>
                </g>
            </g>
            <g id="Fill-28-Clipped">
                <mask id="mask-8" fill="white">
                    <use xlink:href="#path-7"></use>
                </mask>
                <g id="path-7"></g>
                <polygon id="Fill-28" fill="#768692" mask="url(#mask-8)" points="290.627304 255.145198 295.423787 255.145198 295.423787 227.884528 290.627304 227.884528"></polygon>
            </g>
            <g id="Fill-30-Clipped">
                <mask id="mask-10" fill="white">
                    <use xlink:href="#path-9"></use>
                </mask>
                <g id="path-7"></g>
                <path d="M315.706807,241.397833 C319.139585,241.397833 321.323998,239.606501 321.323998,236.841542 L321.323998,236.763581 C321.323998,233.8427 319.217662,232.246271 315.667768,232.246271 L308.68687,232.246271 L308.68687,241.397833 L315.706807,241.397833 L315.706807,241.397833 Z M303.8895,227.884883 L316.057271,227.884883 C319.490048,227.884883 322.181971,228.896604 323.936068,230.609975 C325.379626,232.091235 326.198558,234.115564 326.198558,236.490718 L326.198558,236.569564 C326.198558,241.047894 323.507524,243.734007 319.723396,244.825461 L327.09557,255.145553 L321.401188,255.145553 L314.693565,245.643167 L308.68687,245.643167 L308.68687,255.145553 L303.8895,255.145553 L303.8895,227.884883 L303.8895,227.884883 Z" id="Fill-30" fill="#768692" mask="url(#mask-10)"></path>
            </g>
            <g id="Fill-31-Clipped">
                <mask id="mask-12" fill="white">
                    <use xlink:href="#path-11"></use>
                </mask>
                <g id="path-7"></g>
                <polygon id="Fill-31" fill="#768692" mask="url(#mask-12)" points="333.262147 227.884794 353.503911 227.884794 353.503911 232.168221 338.05863 232.168221 338.05863 239.255588 351.748925 239.255588 351.748925 243.539901 338.05863 243.539901 338.05863 250.86115 353.698217 250.86115 353.698217 255.145464 333.262147 255.145464"></polygon>
            </g>
            <g id="Fill-32-Clipped">
                <mask id="mask-14" fill="white">
                    <use xlink:href="#path-13"></use>
                </mask>
                <g id="path-7"></g>
                <polygon id="Fill-32" fill="#768692" mask="url(#mask-14)" points="360.568563 227.884794 365.67736 227.884794 373.984698 240.774942 382.292036 227.884794 387.40172 227.884794 387.40172 255.145464 382.605237 255.145464 382.605237 235.594963 373.984698 248.447017 373.829428 248.447017 365.286969 235.672924 365.286969 255.145464 360.568563 255.145464"></polygon>
            </g>
            <g id="Fill-33-Clipped">
                <mask id="mask-16" fill="white">
                    <use xlink:href="#path-15"></use>
                </mask>
                <g id="path-7"></g>
                <polygon id="Fill-33" fill="#768692" mask="url(#mask-16)" points="395.596998 227.884794 415.838758 227.884794 415.838758 232.168221 400.393481 232.168221 400.393481 239.255588 414.083775 239.255588 414.083775 243.539901 400.393481 243.539901 400.393481 250.86115 416.033068 250.86115 416.033068 255.145464 395.596998 255.145464"></polygon>
            </g>
            <g id="Fill-34-Clipped">
                <mask id="mask-18" fill="white">
                    <use xlink:href="#path-17"></use>
                </mask>
                <g id="path-7"></g>
                <polygon id="Fill-34" fill="#768692" mask="url(#mask-18)" points="422.903413 227.884794 427.349432 227.884794 441.975778 246.732761 441.975778 227.884794 446.694181 227.884794 446.694181 255.145464 442.677594 255.145464 427.621819 235.751771 427.621819 255.145464 422.903413 255.145464"></polygon>
            </g>
            <g id="Fill-35-Clipped">
                <mask id="mask-20" fill="white">
                    <use xlink:href="#path-19"></use>
                </mask>
                <g id="path-7"></g>
                <polygon id="Fill-35" fill="#768692" mask="url(#mask-20)" points="461.596906 232.324055 452.938217 232.324055 452.938217 227.884706 475.092005 227.884706 475.092005 232.324055 466.434203 232.324055 466.434203 255.145374 461.596906 255.145374"></polygon>
            </g>
            <g id="Fill-36-Clipped">
                <mask id="mask-22" fill="white">
                    <use xlink:href="#path-21"></use>
                </mask>
                <g id="path-7"></g>
                <polygon id="Fill-36" fill="#768692" mask="url(#mask-22)" points="484.984155 228.631182 481.869901 228.631182 481.869901 227.665529 489.158674 227.665529 489.158674 228.631182 486.04442 228.631182 486.04442 236.927831 484.984155 236.927831"></polygon>
            </g>
            <g id="Fill-37-Clipped">
                <mask id="mask-24" fill="white">
                    <use xlink:href="#path-23"></use>
                </mask>
                <g id="path-7"></g>
                <polygon id="Fill-37" fill="#768692" mask="url(#mask-24)" points="491.12092 227.665351 492.180297 227.665351 495.560727 232.720416 498.940268 227.665351 499.999647 227.665351 499.999647 236.92854 498.953577 236.92854 498.953577 229.42479 495.573147 234.387719 495.5208 234.387719 492.141258 229.438079 492.141258 236.92854 491.12092 236.92854"></polygon>
            </g>
            <polygon id="Fill-1" fill="#003087" points="0 141.360805 0 204.268271 47.971929 204.268271 47.971929 191.956629 13.7710348 191.956629 13.7710348 178.745778 43.4717879 178.745778 43.4717879 166.43325 13.7710348 166.43325 13.7710348 153.672446 47.5220923 153.672446 47.5220923 141.360805"></polygon>
            <polygon id="Fill-2" fill="#003087" points="58.8933773 141.36045 73.8338099 141.36045 90.3943643 167.961109 106.955806 141.36045 121.896239 141.36045 121.896239 204.268802 108.125204 204.268802 108.125204 163.198399 90.3943643 190.070149 90.0350273 190.070149 72.4843 163.467719 72.4843 204.268802 58.8933773 204.268802"></polygon>
        </g>
    </g>
</svg>