<?xml version="1.0" encoding="UTF-8"?>
<svg width="770px" height="428px" viewBox="0 0 770 428" version="1.1" xmlns="http://www.w3.org/2000/svg" xmlns:xlink="http://www.w3.org/1999/xlink">
    <!-- Generator: Sketch 40.3 (33839) - http://www.bohemiancoding.com/sketch -->
    <title>Artboard Copy</title>
    <desc>Created with Sketch.</desc>
    <defs>
        <ellipse id="path-1" cx="33.75" cy="33.75" rx="33.75" ry="33.75"></ellipse>
        <filter x="-50%" y="-50%" width="200%" height="200%" filterUnits="objectBoundingBox" id="filter-2">
            <feOffset dx="0" dy="2" in="SourceAlpha" result="shadowOffsetOuter1"></feOffset>
            <feGaussianBlur stdDeviation="4" in="shadowOffsetOuter1" result="shadowBlurOuter1"></feGaussianBlur>
            <feColorMatrix values="0 0 0 0 0   0 0 0 0 0   0 0 0 0 0  0 0 0 0.25 0" type="matrix" in="shadowBlurOuter1"></feColorMatrix>
        </filter>
        <path d="M21.7306113,38.0256137 C18.2914794,36.7098241 15.0792329,31.7278407 17.1572788,26.6806641 C18.8630894,21.9971924 23.8783479,16.239624 28.4468289,15 C30.2022716,16.8879866 33.2694612,23.2580566 33.2694607,29.1862793 C33.2694612,35.9586182 27.3731915,38.3613281 23.4381626,38.3613281 C23.0037768,43.8377662 25.2957676,47.5294189 25.2957676,47.5294189 C25.2957676,47.5294189 28.6240758,42.288208 31.381461,42.288208 L31.522086,39.5994873 C31.522086,39.5994873 31.4495237,33.5538624 36.5497961,31.567749 C41.6500684,29.5816356 45.7841711,30.2398682 52.650443,31.3718262 C54.4659338,31.881958 53.7285679,34.3602905 53.7285679,34.3602905 C53.402091,37.4734497 47.334708,43.4349976 47.334708,43.4349976 C47.334708,43.4349976 39.2328405,51.7750848 32.5370397,43.9592278 C31.7436439,44.1947015 27.5415563,45.7045898 27.1253574,51.7750854 C26.5233066,52.9449463 25.8218296,52.1462402 25.8218296,52.1462402 C25.8218296,51.7834076 20.5997163,46.0003773 21.7306113,38.0256137 Z M27.0795813,22.2685547 C26.631315,22.0272325 24.7968052,25.4421387 24.7968052,25.4421387 C24.7968052,25.4421387 21.9610508,22.7420654 21.9610508,23.8170776 C21.9610508,24.8920899 23.3640047,25.4454346 24.4813143,28.3967285 L23.9080113,31.1748047 C23.9080113,31.1748047 22.9880894,31.3135986 21.4866245,27.9429932 C21.4866245,27.9429932 20.4436558,28.7861938 20.9299839,30.8807373 L23.3414829,34.2755127 C23.3414829,34.2755127 24.6023474,34.1901855 27.7517614,31.9061279 C27.7517614,31.789917 28.9064245,30.8807373 28.4988318,29.9106445 C27.9903479,29.4109497 24.8315949,32.960083 25.0203768,31.1748047 L25.6841343,28.3967285 C25.6841343,28.3967285 29.3724281,27.5667114 29.7053137,25.8914795 C28.3056557,25.4421387 26.6209017,26.4241333 26.6209017,26.4241333 C26.6209017,26.4241333 27.5278475,22.5098769 27.0795813,22.2685547 Z M47.0510944,36.2463769 C46.944556,35.7899083 43.4410074,36.6838608 43.4410074,36.6838608 C43.4410074,36.6838608 43.5846727,33.0600186 42.8356339,33.7344562 C42.0865951,34.4088937 42.5607308,35.7108328 41.1890068,38.3227934 L38.902016,39.6755308 C38.902016,39.6755308 38.2416058,39.1365519 39.6700948,36.0000873 C39.6700948,36.0000873 38.4434738,35.8192969 37.2820621,37.4643363 L36.3943757,41.2352904 C36.3943757,41.2352904 37.2264518,42.0398424 40.747793,42.750219 C40.8287656,42.677311 42.1698021,42.8927216 42.5959745,42.0067198 C42.6325633,41.347173 38.2240297,41.4241197 39.5836426,40.4325537 L41.9260613,39.1413753 C41.9260613,39.1413753 44.7644777,41.130719 46.135716,40.3062636 C45.5911329,39.0718171 43.8745361,38.5413344 43.8745361,38.5413344 C43.8745361,38.5413344 47.1576328,36.7028454 47.0510944,36.2463769 Z" id="path-3"></path>
        <filter x="-50%" y="-50%" width="200%" height="200%" filterUnits="objectBoundingBox" id="filter-4">
            <feOffset dx="0" dy="0.75" in="SourceAlpha" result="shadowOffsetOuter1"></feOffset>
            <feColorMatrix values="0 0 0 0 0.0470588235   0 0 0 0 0.415686275   0 0 0 0 0.333333333  0 0 0 1 0" type="matrix" in="shadowOffsetOuter1"></feColorMatrix>
        </filter>
        <circle id="path-5" cx="15" cy="15" r="15"></circle>
        <filter x="-50%" y="-50%" width="200%" height="200%" filterUnits="objectBoundingBox" id="filter-6">
            <feOffset dx="0" dy="2" in="SourceAlpha" result="shadowOffsetOuter1"></feOffset>
            <feGaussianBlur stdDeviation="4" in="shadowOffsetOuter1" result="shadowBlurOuter1"></feGaussianBlur>
            <feColorMatrix values="0 0 0 0 0   0 0 0 0 0   0 0 0 0 0  0 0 0 0.253623188 0" type="matrix" in="shadowBlurOuter1"></feColorMatrix>
        </filter>
        <linearGradient x1="50%" y1="0%" x2="50%" y2="100%" id="linearGradient-7">
            <stop stop-color="#216AF8" offset="0%"></stop>
            <stop stop-color="#1ECBFE" offset="100%"></stop>
        </linearGradient>
        <linearGradient x1="50%" y1="0%" x2="50%" y2="100%" id="linearGradient-8">
            <stop stop-color="#82FB6B" offset="0%"></stop>
            <stop stop-color="#10D71D" offset="100%"></stop>
        </linearGradient>
        <linearGradient x1="50%" y1="0%" x2="50%" y2="100%" id="linearGradient-9">
            <stop stop-color="#FF5F3F" offset="0%"></stop>
            <stop stop-color="#FF2A5A" offset="100%"></stop>
        </linearGradient>
        <linearGradient x1="50%" y1="0%" x2="50%" y2="100%" id="linearGradient-10">
            <stop stop-color="#FF9700" offset="0%"></stop>
            <stop stop-color="#FF7930" offset="100%"></stop>
        </linearGradient>
        <linearGradient x1="50%" y1="0%" x2="50%" y2="100%" id="linearGradient-11">
            <stop stop-color="#FB9902" offset="0%"></stop>
            <stop stop-color="#FF7D35" offset="100%"></stop>
        </linearGradient>
        <linearGradient x1="50%" y1="0%" x2="50%" y2="100%" id="linearGradient-12">
            <stop stop-color="#8CFF73" offset="0%"></stop>
            <stop stop-color="#0AD61D" offset="100%"></stop>
        </linearGradient>
        <circle id="path-13" cx="28.5" cy="28.5" r="28.5"></circle>
        <linearGradient x1="50%" y1="0%" x2="50%" y2="100%" id="linearGradient-15">
            <stop stop-color="#A1A2A3" offset="0%"></stop>
            <stop stop-color="#636466" offset="100%"></stop>
        </linearGradient>
        <linearGradient x1="50%" y1="0%" x2="50%" y2="100%" id="linearGradient-16">
            <stop stop-color="#E9BC1C" offset="0%"></stop>
            <stop stop-color="#FFEE46" offset="100%"></stop>
        </linearGradient>
        <linearGradient x1="50%" y1="0%" x2="50%" y2="100%" id="linearGradient-17">
            <stop stop-color="#FFFFFF" stop-opacity="0.882019928" offset="0%"></stop>
            <stop stop-color="#FFFFFF" offset="100%"></stop>
        </linearGradient>
        <path d="M20.0568908,29.0175907 C17.2265285,29.2432303 15,31.6115983 15,34.5 C15,37.3690213 17.19675,39.7249641 20,39.9775785 L20,40 L39,40 L39,39.9835977 C42.9090159,39.7263047 46,36.4741213 46,32.5 C46,28.3578644 42.6421356,25 38.5,25 C38.1645581,25 37.8342597,25.0220216 37.5104715,25.064698 C36.2934148,21.5353663 32.9427907,19 29,19 C24.0294373,19 20,23.0294373 20,28 C20,28.3440472 20.019305,28.6835855 20.0568908,29.0175907 Z" id="path-18"></path>
        <filter x="-50%" y="-50%" width="200%" height="200%" filterUnits="objectBoundingBox" id="filter-19">
            <feGaussianBlur stdDeviation="1" in="SourceAlpha" result="shadowBlurInner1"></feGaussianBlur>
            <feOffset dx="0" dy="0" in="shadowBlurInner1" result="shadowOffsetInner1"></feOffset>
            <feComposite in="shadowOffsetInner1" in2="SourceAlpha" operator="arithmetic" k2="-1" k3="1" result="shadowInnerInner1"></feComposite>
            <feColorMatrix values="0 0 0 0 1   0 0 0 0 1   0 0 0 0 1  0 0 0 1 0" type="matrix" in="shadowInnerInner1"></feColorMatrix>
        </filter>
        <linearGradient x1="50%" y1="0%" x2="50%" y2="100%" id="linearGradient-20">
            <stop stop-color="#09B7FB" offset="0%"></stop>
            <stop stop-color="#4568FE" offset="100%"></stop>
        </linearGradient>
        <circle id="path-21" cx="28.5" cy="28.5" r="28.5"></circle>
        <mask id="mask-22" maskContentUnits="userSpaceOnUse" maskUnits="objectBoundingBox" x="0" y="0" width="57" height="57" fill="white">
            <use xlink:href="#path-21"></use>
        </mask>
        <linearGradient x1="50%" y1="0%" x2="50%" y2="100%" id="linearGradient-23">
            <stop stop-color="#E1E3E4" offset="0%"></stop>
            <stop stop-color="#9CA0A4" offset="100%"></stop>
        </linearGradient>
        <circle id="path-24" cx="28.5" cy="28.5" r="28.5"></circle>
        <linearGradient x1="50%" y1="0%" x2="50%" y2="100%" id="linearGradient-26">
            <stop stop-color="#4B4B4B" offset="0%"></stop>
            <stop stop-color="#353535" offset="100%"></stop>
        </linearGradient>
        <path d="M18.8256836,35 L18.8256836,55.6000977 L18.8442546,60.5049524 L58.9851282,60.5049524 L58.9851282,35 L18.8256836,35 L18.8256836,35 Z M18.8256836,32.2880911 C18.8256836,30.0785316 20.6206976,28.2873296 22.8218938,28.2873296 L35.0565035,28.2873296 C37.2635494,28.2873296 39.6454172,26.6013959 40.3772901,24.5195974 L40.7281373,23.5216191 C41.4596807,21.4407581 43.8487483,19.7538869 46.0440182,19.7538869 L58.9851282,19.7538869 L58.9851282,33 L18.8256836,33 L18.8256836,32.2880911 Z M25,26 C25,25.4477153 25.4509752,25 25.990778,25 L30.009222,25 C30.5564136,25 31,25.4438648 31,26 L31,27 L25,27 L25,26 Z M20.2902283,14.2042444 C19.9649014,14.6506047 20.0401697,15.2900381 20.4720058,15.6436453 L26.8197422,20.8414622 C27.2454621,21.190061 27.9435253,21.2119701 28.396021,20.8777595 L35.5129145,15.621264 C35.9577494,15.2927116 35.9959141,14.7232907 35.5858584,14.3378666 L34.4212217,13.2431881 C34.0166726,12.8629397 33.3309546,12.8311695 32.9034318,13.1615597 L28.4671737,16.5899052 C28.0334706,16.9250714 27.3372271,16.9258791 26.8986826,16.5811865 L22.3789053,13.0286768 C21.9463547,12.6886953 21.3322767,12.7745165 21.0066467,13.2212927 L20.2902283,14.2042444 Z" id="path-27"></path>
        <filter x="-50%" y="-50%" width="200%" height="200%" filterUnits="objectBoundingBox" id="filter-28">
            <feGaussianBlur stdDeviation="0.5" in="SourceAlpha" result="shadowBlurInner1"></feGaussianBlur>
            <feOffset dx="0" dy="1" in="shadowBlurInner1" result="shadowOffsetInner1"></feOffset>
            <feComposite in="shadowOffsetInner1" in2="SourceAlpha" operator="arithmetic" k2="-1" k3="1" result="shadowInnerInner1"></feComposite>
            <feColorMatrix values="0 0 0 0 0   0 0 0 0 0   0 0 0 0 0  0 0 0 0.200000003 0" type="matrix" in="shadowInnerInner1"></feColorMatrix>
        </filter>
        <circle id="path-29" cx="28.5" cy="28.5" r="28.5"></circle>
        <linearGradient x1="50%" y1="0%" x2="50%" y2="100%" id="linearGradient-31">
            <stop stop-color="#FF5D4D" offset="0%"></stop>
            <stop stop-color="#FA403B" offset="100%"></stop>
        </linearGradient>
        <linearGradient x1="50%" y1="0%" x2="50%" y2="100%" id="linearGradient-32">
            <stop stop-color="#47A6DA" offset="0%"></stop>
            <stop stop-color="#4C9ECC" offset="100%"></stop>
        </linearGradient>
        <linearGradient x1="50%" y1="0%" x2="50%" y2="100%" id="linearGradient-33">
            <stop stop-color="#44D400" offset="0%"></stop>
            <stop stop-color="#29C102" offset="100%"></stop>
        </linearGradient>
        <linearGradient x1="50%" y1="0%" x2="50%" y2="100%" id="linearGradient-34">
            <stop stop-color="#F6A01A" offset="0%"></stop>
            <stop stop-color="#F6A11B" offset="100%"></stop>
        </linearGradient>
        <path d="M3.77989324,42.3519856 L2.83491993,42.3519856 C2.83491993,42.7789901 2.41184097,43.1251456 1.88994662,43.1251456 C1.36805227,43.1251456 0.94497331,42.7789901 0.94497331,42.3519856 L-0.94497331,42.3519856 L-0.94497331,58.5883452 L57.6433719,58.5883452 L57.6433719,42.3519856 L56.6983986,42.3519856 C56.6983986,42.7789901 56.2753196,43.1251456 55.7534253,43.1251456 C55.2315309,43.1251456 54.808452,42.7789901 54.808452,42.3519856 L53.8634787,42.3519856 C53.8634787,42.7789901 53.4403997,43.1251456 52.9185054,43.1251456 C52.396611,43.1251456 51.9735321,42.7789901 51.9735321,42.3519856 L51.0285587,42.3519856 C51.0285587,42.7789901 50.6054798,43.1251456 50.0835854,43.1251456 C49.5616911,43.1251456 49.1386121,42.7789901 49.1386121,42.3519856 L48.1936388,42.3519856 C48.1936388,42.7789901 47.7705599,43.1251456 47.2486655,43.1251456 C46.7267712,43.1251456 46.3036922,42.7789901 46.3036922,42.3519856 L45.3587189,42.3519856 C45.3587189,42.7789901 44.9356399,43.1251456 44.4137456,43.1251456 C43.8918512,43.1251456 43.4687723,42.7789901 43.4687723,42.3519856 L42.523799,42.3519856 C42.523799,42.7789901 42.10072,43.1251456 41.5788256,43.1251456 C41.0569313,43.1251456 40.6338523,42.7789901 40.6338523,42.3519856 L39.688879,42.3519856 C39.688879,42.7789901 39.2658001,43.1251456 38.7439057,43.1251456 C38.2220114,43.1251456 37.7989324,42.7789901 37.7989324,42.3519856 L36.8539591,42.3519856 C36.8539591,42.7789901 36.4308801,43.1251456 35.9089858,43.1251456 C35.3870914,43.1251456 34.9640125,42.7789901 34.9640125,42.3519856 L34.0190392,42.3519856 C34.0190392,42.7789901 33.5959602,43.1251456 33.0740659,43.1251456 C32.5521715,43.1251456 32.1290925,42.7789901 32.1290925,42.3519856 L31.1841192,42.3519856 C31.1841192,42.7789901 30.7610403,43.1251456 30.2391459,43.1251456 C29.7172516,43.1251456 29.2941726,42.7789901 29.2941726,42.3519856 L28.3491993,42.3519856 C28.3491993,42.7789901 27.9261203,43.1251456 27.404226,43.1251456 C26.8823316,43.1251456 26.4592527,42.7789901 26.4592527,42.3519856 L25.5142794,42.3519856 C25.5142794,42.7789901 25.0912004,43.1251456 24.5693061,43.1251456 C24.0474117,43.1251456 23.6243328,42.7789901 23.6243328,42.3519856 L22.6793594,42.3519856 C22.6793594,42.7789901 22.2562805,43.1251456 21.7343861,43.1251456 C21.2124918,43.1251456 20.7894128,42.7789901 20.7894128,42.3519856 L19.8444395,42.3519856 C19.8444395,42.7789901 19.4213606,43.1251456 18.8994662,43.1251456 C18.3775719,43.1251456 17.9544929,42.7789901 17.9544929,42.3519856 L17.0095196,42.3519856 C17.0095196,42.7789901 16.5864406,43.1251456 16.0645463,43.1251456 C15.5426519,43.1251456 15.119573,42.7789901 15.119573,42.3519856 L14.1745997,42.3519856 C14.1745997,42.7789901 13.7515207,43.1251456 13.2296263,43.1251456 C12.707732,43.1251456 12.284653,42.7789901 12.284653,42.3519856 L11.3396797,42.3519856 C11.3396797,42.7789901 10.9166008,43.1251456 10.3947064,43.1251456 C9.87281206,43.1251456 9.4497331,42.7789901 9.4497331,42.3519856 L8.50475979,42.3519856 C8.50475979,42.7789901 8.08168083,43.1251456 7.55978648,43.1251456 C7.03789213,43.1251456 6.61481317,42.7789901 6.61481317,42.3519856 L5.66983986,42.3519856 C5.66983986,42.7789901 5.2467609,43.1251456 4.72486655,43.1251456 C4.2029722,43.1251456 3.77989324,42.7789901 3.77989324,42.3519856 Z" id="path-35"></path>
        <filter x="-50%" y="-50%" width="200%" height="200%" filterUnits="objectBoundingBox" id="filter-36">
            <feOffset dx="0" dy="3" in="SourceAlpha" result="shadowOffsetOuter1"></feOffset>
            <feGaussianBlur stdDeviation="3" in="shadowOffsetOuter1" result="shadowBlurOuter1"></feGaussianBlur>
            <feColorMatrix values="0 0 0 0 0   0 0 0 0 0   0 0 0 0 0  0 0 0 0.5 0" type="matrix" in="shadowBlurOuter1"></feColorMatrix>
        </filter>
        <circle id="path-37" cx="28.5" cy="28.5" r="28.5"></circle>
        <circle id="path-39" cx="37" cy="37" r="37"></circle>
        <mask id="mask-40" maskContentUnits="userSpaceOnUse" maskUnits="objectBoundingBox" x="0" y="0" width="74" height="74" fill="white">
            <use xlink:href="#path-39"></use>
        </mask>
        <circle id="path-41" cx="37" cy="4" r="4"></circle>
        <filter x="-50%" y="-50%" width="200%" height="200%" filterUnits="objectBoundingBox" id="filter-42">
            <feOffset dx="-1" dy="0" in="SourceAlpha" result="shadowOffsetOuter1"></feOffset>
            <feGaussianBlur stdDeviation="0.5" in="shadowOffsetOuter1" result="shadowBlurOuter1"></feGaussianBlur>
            <feColorMatrix values="0 0 0 0 0   0 0 0 0 0   0 0 0 0 0  0 0 0 0.200000003 0" type="matrix" in="shadowBlurOuter1" result="shadowMatrixOuter1"></feColorMatrix>
            <feOffset dx="-3" dy="0" in="SourceAlpha" result="shadowOffsetOuter2"></feOffset>
            <feGaussianBlur stdDeviation="1.5" in="shadowOffsetOuter2" result="shadowBlurOuter2"></feGaussianBlur>
            <feColorMatrix values="0 0 0 0 0   0 0 0 0 0   0 0 0 0 0  0 0 0 0.300000012 0" type="matrix" in="shadowBlurOuter2" result="shadowMatrixOuter2"></feColorMatrix>
            <feMerge>
                <feMergeNode in="shadowMatrixOuter1"></feMergeNode>
                <feMergeNode in="shadowMatrixOuter2"></feMergeNode>
            </feMerge>
        </filter>
        <circle id="path-43" cx="37" cy="37" r="27"></circle>
        <mask id="mask-44" maskContentUnits="userSpaceOnUse" maskUnits="objectBoundingBox" x="0" y="0" width="54" height="54" fill="white">
            <use xlink:href="#path-43"></use>
        </mask>
        <circle id="path-45" cx="37.65" cy="13.65" r="3.65"></circle>
        <filter x="-50%" y="-50%" width="200%" height="200%" filterUnits="objectBoundingBox" id="filter-46">
            <feOffset dx="-1" dy="0" in="SourceAlpha" result="shadowOffsetOuter1"></feOffset>
            <feGaussianBlur stdDeviation="0.5" in="shadowOffsetOuter1" result="shadowBlurOuter1"></feGaussianBlur>
            <feColorMatrix values="0 0 0 0 0   0 0 0 0 0   0 0 0 0 0  0 0 0 0.200000003 0" type="matrix" in="shadowBlurOuter1" result="shadowMatrixOuter1"></feColorMatrix>
            <feOffset dx="-3" dy="0" in="SourceAlpha" result="shadowOffsetOuter2"></feOffset>
            <feGaussianBlur stdDeviation="1.5" in="shadowOffsetOuter2" result="shadowBlurOuter2"></feGaussianBlur>
            <feColorMatrix values="0 0 0 0 0   0 0 0 0 0   0 0 0 0 0  0 0 0 0.300000012 0" type="matrix" in="shadowBlurOuter2" result="shadowMatrixOuter2"></feColorMatrix>
            <feMerge>
                <feMergeNode in="shadowMatrixOuter1"></feMergeNode>
                <feMergeNode in="shadowMatrixOuter2"></feMergeNode>
            </feMerge>
        </filter>
        <circle id="path-47" cx="37" cy="37" r="16"></circle>
        <mask id="mask-48" maskContentUnits="userSpaceOnUse" maskUnits="objectBoundingBox" x="0" y="0" width="32" height="32" fill="white">
            <use xlink:href="#path-47"></use>
        </mask>
        <circle id="path-49" cx="37" cy="24" r="3"></circle>
        <filter x="-50%" y="-50%" width="200%" height="200%" filterUnits="objectBoundingBox" id="filter-50">
            <feOffset dx="-1" dy="0" in="SourceAlpha" result="shadowOffsetOuter1"></feOffset>
            <feGaussianBlur stdDeviation="0.5" in="shadowOffsetOuter1" result="shadowBlurOuter1"></feGaussianBlur>
            <feColorMatrix values="0 0 0 0 0   0 0 0 0 0   0 0 0 0 0  0 0 0 0.200000003 0" type="matrix" in="shadowBlurOuter1" result="shadowMatrixOuter1"></feColorMatrix>
            <feOffset dx="-3" dy="0" in="SourceAlpha" result="shadowOffsetOuter2"></feOffset>
            <feGaussianBlur stdDeviation="1.5" in="shadowOffsetOuter2" result="shadowBlurOuter2"></feGaussianBlur>
            <feColorMatrix values="0 0 0 0 0   0 0 0 0 0   0 0 0 0 0  0 0 0 0.300000012 0" type="matrix" in="shadowBlurOuter2" result="shadowMatrixOuter2"></feColorMatrix>
            <feMerge>
                <feMergeNode in="shadowMatrixOuter1"></feMergeNode>
                <feMergeNode in="shadowMatrixOuter2"></feMergeNode>
            </feMerge>
        </filter>
    </defs>
    <g id="Page-1" stroke="none" stroke-width="1" fill="none" fill-rule="evenodd">
        <g id="Artboard-Copy">
            <path d="M-1,-41 L779,-41 L779,431 L-1,431 L-1,-41 Z M388,249 C411.195959,249 430,230.195959 430,207 C430,183.804041 411.195959,165 388,165 C364.804041,165 346,183.804041 346,207 C346,230.195959 364.804041,249 388,249 Z" id="Combined-Shape" fill="#000000"></path>
            <g id="Icon-Plant" transform="translate(355.000000, 322.000000)">
                <g id="Oval-88">
                    <use fill="black" fill-opacity="1" filter="url(#filter-2)" xlink:href="#path-1"></use>
                    <use fill="#03B090" fill-rule="evenodd" xlink:href="#path-1"></use>
                </g>
                <g id="Oval-107">
                    <use fill="black" fill-opacity="1" filter="url(#filter-4)" xlink:href="#path-3"></use>
                    <use fill="#FFFFFF" fill-rule="evenodd" xlink:href="#path-3"></use>
                </g>
            </g>
            <g id="Icon-Smart-House" transform="translate(197.000000, 256.000000)">
                <g id="App-Icon:-90px-x-90px">
                    <use fill="black" fill-opacity="1" filter="url(#filter-6)" xlink:href="#path-5"></use>
                    <use fill="#0099CE" fill-rule="evenodd" xlink:href="#path-5"></use>
                </g>
                <path d="M22,18.2675644 C22.5978014,18.6133738 23,19.2597176 23,20 C23,20.6203932 22.5090303,21.1748108 22,21.5416538 L22,23 L22.3333333,23 L22.3333333,23.3333333 L22.6666667,23.3333333 L22.6666667,23.6666667 L19.3333333,23.6666667 L19.3333333,23.3333333 L19.6666667,23.3333333 L19.6666667,23 L20,23 L20,21.5416538 C19.4909697,21.1748108 19,20.6203932 19,20 C19,19.2597176 19.4021986,18.6133738 20,18.2675644 L20,17.3333333 L22,17.3333333 L22,18.2675644 Z M19.3333333,11.3333333 L22.6666667,11.3333333 L25.3333333,16.6666667 L16.6666667,16.6666667 L19.3333333,11.3333333 Z M20.6666667,16.6666667 L21.3333333,16.6666667 L21.3333333,17.3333333 L20.6666667,17.3333333 L20.6666667,16.6666667 Z" id="Rectangle-282" fill="#FFFFFF"></path>
                <path d="M17.6666667,19.2213542 L17.6666667,9.5546875 L7.33333333,9.5546875 L7.33333333,19.2213542 L6.66666667,19.2213542 L6.66666667,19.5546875 L18,19.5546875 L18,19.2213542 L17.6666667,19.2213542 Z M7.66666667,12.2213542 L12.3333333,12.2213542 L12.3333333,14.2213542 L7.66666667,14.2213542 L7.66666667,12.2213542 Z M12.6666667,14.5546875 L17.3333333,14.5546875 L17.3333333,18.8689534 L12.6666667,18.8689534 L12.6666667,14.5546875 Z M12.6666667,12.2213542 L17.3333333,12.2213542 L17.3333333,14.2213542 L12.6666667,14.2213542 L12.6666667,12.2213542 Z M7.66666667,14.5546875 L12.3333333,14.5546875 L12.3333333,18.8689534 L7.66666667,18.8689534 L7.66666667,14.5546875 Z M6.66666667,7.88802083 L18.3333333,7.88802083 L18.3333333,9.22135417 L6.66666667,9.22135417 L6.66666667,7.88802083 Z" id="Rectangle-276" fill="#FFFFFF"></path>
            </g>
            <g id="Home" transform="translate(194.000000, 23.000000)">
                <g id="Clock" transform="translate(71.000000, 147.000000)">
                    <circle id="Oval-35" fill="#FFFFFF" cx="37" cy="37" r="37"></circle>
                    <path d="M27.1904762,39.5678617 C27.7059292,39.3857864 28.0714286,38.8924331 28.0714286,38.3123828 L28.0714286,22.4733315 C28.0714286,21.7374323 27.4798048,21.1428571 26.75,21.1428571 C26.0151071,21.1428571 25.4285714,21.7385308 25.4285714,22.4733315 L25.4285714,38.3123828 C25.4285714,38.8925457 25.7962843,39.3848712 26.3095238,39.567267 L26.3095238,42.2857143 L27.1904762,42.2857143 L27.1904762,39.5678617 Z" id="Rectangle-212" fill="#262628" transform="translate(26.750000, 31.714286) rotate(-60.000000) translate(-26.750000, -31.714286) "></path>
                    <path d="M50.0952381,41.3305149 C50.6106911,41.150257 50.9761905,40.6618277 50.9761905,40.0875668 L50.9761905,15.4124332 C50.9761905,14.6910341 50.3845668,14.0952381 49.6547619,14.0952381 C48.919869,14.0952381 48.3333333,14.6849664 48.3333333,15.4124332 L48.3333333,40.0875668 C48.3333333,40.6562983 48.7010462,41.1469634 49.2142857,41.3291683 L49.2142857,44.047619 L50.0952381,44.047619 L50.0952381,41.3305149 Z" id="Rectangle-212" fill="#262628" transform="translate(49.654762, 29.071429) rotate(60.000000) translate(-49.654762, -29.071429) "></path>
                    <path d="M36.8809524,35.4738067 L36.8809524,31.7114512 C36.8809524,31.2238258 36.4865366,30.8333333 36,30.8333333 C35.5100714,30.8333333 35.1190476,31.2264801 35.1190476,31.7114512 L35.1190476,35.4738067 C34.5924131,35.7784484 34.2380952,36.3478465 34.2380952,37 C34.2380952,37.6521535 34.5924131,38.2215516 35.1190476,38.5261933 L35.1190476,66.9552155 C35.1190476,67.4428408 35.5134634,67.8333333 36,67.8333333 C36.4899286,67.8333333 36.8809524,67.4401866 36.8809524,66.9552155 L36.8809524,38.5261933 C37.4075869,38.2215516 37.7619048,37.6521535 37.7619048,37 C37.7619048,36.3478465 37.4075869,35.7784484 36.8809524,35.4738067 Z" id="Rectangle-211" fill="#FF940B"></path>
                </g>
                <g id="Mail" transform="translate(203.000000, 68.000000)">
                    <circle id="Oval-35" fill="url(#linearGradient-7)" cx="37" cy="37" r="37"></circle>
                    <path d="M59.7695312,24.1821289 L46.618778,37.3328822 L59.9044008,50.618505 L59.7695312,24.1821289 L59.7695312,24.1821289 Z M58,22.5617676 L39.8517964,40.7023674 C38.2893324,42.2641768 35.7273034,42.296881 34.1209748,40.7674453 L15,22.5617676 L58,22.5617676 Z M58.5738372,52.3764648 L45.3242908,39 L40.0953144,43.6549399 C38.4435584,45.1253663 35.7347927,45.1579215 34.0568046,43.7375472 L28.4600067,39 L14.6352539,52.3764648 L58.5738372,52.3764648 Z M26.9044008,37.3328822 L13.618778,50.618505 L13.7536476,24.1821289 L26.9044008,37.3328822 Z" fill="#FFFFFF"></path>
                </g>
                <g id="Messages" transform="translate(203.000000, 223.000000)">
                    <circle id="Oval-35" fill="url(#linearGradient-8)" cx="37" cy="37" r="37"></circle>
                    <path d="M15,37 C15,27.0588745 25.0735931,19 37.5,19 C49.9264069,19 60,27.0588745 60,37 C60,46.9411255 49.9264069,55 37.5,55 C35.4553253,55 33.4743514,54.7818116 31.5914734,54.3729508 C31.5694693,54.4077227 31.547279,54.4428291 31.5249023,54.4782715 C30.149292,56.6571045 22.1360744,59.1403022 22.1360744,59.1403022 C21.0960708,59.4945415 20.7899719,59.0694289 21.4640417,58.2017431 C21.4640417,58.2017431 24.5428467,54.4216309 24.5428467,53.2258301 C24.5428467,52.0543126 24.3866686,51.8619837 23.8722933,51.3240109 C18.4799823,48.0356572 15,42.8429459 15,37 Z" id="Chat" fill="#FFFFFF"></path>
                </g>
                <g id="iTunes" transform="translate(115.000000, 68.000000)">
                    <circle id="Oval-35" fill="url(#linearGradient-9)" cx="37" cy="37" r="37"></circle>
                    <path d="M26.994371,20.1214231 L26.9696967,28.8540333 L26.9999997,48.0294494 C25.8623648,47.3355845 24.4678427,46.9231754 22.9696968,46.9231754 C19.1105085,46.9231754 16,49.6408137 16,52.9769526 C16,56.3130915 19.1105085,59 22.9696968,59 C26.828885,59 30.1072462,56.310171 29.9696966,52.9769526 L29.8991027,51.2662105 L29.742073,30.0822 C29.7338999,28.9796118 30.5839295,27.8513097 31.6601407,27.5567366 L48.3398619,22.9912787 C49.4073545,22.699092 50.2727283,23.3584755 50.2727283,24.4541187 L50.2727283,43.6350832 C49.0729911,42.7966259 47.5417087,42.2829706 45.878789,42.2829706 C42.0196008,42.2829706 38.9090922,45.0006089 38.9090922,48.3367478 C38.9090922,51.6728867 42.0196008,54.3597951 45.878789,54.3597951 C49.7379773,54.3597951 52.9818861,51.6728867 52.9818861,48.3367478 C52.9818861,48.3055754 53,21.7247611 53,21.7247611 L53,12.9921509 C53,11.8919435 52.1349335,11.2372528 51.0670156,11.5300789 L28.9329841,17.5992917 C27.8654263,17.892019 26.9974682,19.0252578 26.994371,20.1214231 Z" id="path3036" fill="#FFFFFF"></path>
                </g>
                <g id="World-Clock" transform="translate(0.000000, 156.000000)">
                    <circle id="Oval-35" fill="url(#linearGradient-10)" cx="28.5" cy="28.5" r="28.5"></circle>
                    <circle id="Oval-45" stroke="#FFFFFF" stroke-width="2" fill="#FF6115" cx="28.5" cy="27.5" r="16.9459459"></circle>
                    <path d="M14.9635449,16.6614463 C17.85326,18.5500086 22.8367568,19.7972973 28.5,19.7972973 C34.311118,19.7972973 39.4065279,18.4840215 42.2585102,16.5122068" id="Oval-47" stroke="#FFFFFF" stroke-width="2"></path>
                    <path d="M14.9635449,34.4131577 C17.85326,36.30172 22.8367568,37.5490088 28.5,37.5490088 C34.311118,37.5490088 39.4065279,36.2357329 42.2585102,34.2639183" id="Oval-47" stroke="#FFFFFF" stroke-width="2" transform="translate(28.611028, 35.906464) scale(1, -1) translate(-28.611028, -35.906464) "></path>
                    <ellipse id="Oval-46" stroke="#FFFFFF" stroke-width="2" cx="28.5" cy="27.5" rx="8.47297297" ry="16.9459459"></ellipse>
                    <path d="M11.578125,26.7297297 L45.5140876,26.7297297" id="Path-359" stroke="#FFFFFF" stroke-width="2"></path>
                    <path d="M28.5,10.6706477 L28.5,44.35609" id="Path-360" stroke="#FFFFFF" stroke-width="2"></path>
                </g>
                <g id="Alarm" transform="translate(243.000000, 147.000000)">
                    <circle id="Oval-35" fill="url(#linearGradient-11)" cx="37" cy="37" r="37"></circle>
                    <circle id="Oval-42" stroke="#FFFFFF" stroke-width="3" fill="#FF5C18" cx="37" cy="37" r="22"></circle>
                    <rect id="Rectangle-207" fill="#FFFFFF" x="35" y="9" width="4" height="6" rx="2"></rect>
                    <path d="M56,18 L56,21.9970707 C56,22.5509732 55.5561352,23 55,23 C54.4477153,23 54,22.5621186 54,21.9970707 L54,18 L53.498576,18 C52.6709353,18 52,17.3342028 52,16.5 C52,15.6715729 52.6650298,15 53.498576,15 L56.501424,15 C57.3290647,15 58,15.6657972 58,16.5 C58,17.3284271 57.3349702,18 56.501424,18 L56,18 Z" id="Rectangle-209" fill="#FFFFFF" transform="translate(55.000000, 19.000000) rotate(45.000000) translate(-55.000000, -19.000000) "></path>
                    <circle id="Oval-43" fill="#FFFFFF" cx="37" cy="37" r="3"></circle>
                    <rect id="Rectangle-208" fill="#FFFFFF" x="36" y="21" width="2" height="23" rx="1"></rect>
                </g>
                <g id="Phone" transform="translate(289.000000, 85.000000)">
                    <circle id="Oval-55" fill="url(#linearGradient-12)" cx="28.5" cy="28.5" r="28.5"></circle>
                    <path d="M15.9116071,26.530838 C13.4952805,21.730838 13,20.3278107 13,18.5278107 C13,16.7278107 13.4571429,16.1278107 13.9142857,15.7944773 C14.3714286,15.461144 17.7673469,13.1278107 17.7673469,13.1278107 C17.7673469,13.1278107 18.6163265,12.5278107 19.3346939,13.9278107 C19.922449,15.061144 22.7959184,19.461144 22.7959184,19.461144 C22.7959184,19.461144 23.5142857,20.061144 23.644898,20.9278107 C23.7102041,21.5944773 23.0571429,22.3944773 22.5346939,22.9278107 C21.555102,23.9278107 21.2938776,24.061144 21.2938776,25.3944773 C21.2938776,26.7278107 24.4938776,30.3944773 25.4081633,31.3278107 C26.322449,32.261144 26.2571429,32.261144 27.1714286,33.1278107 C28.2816327,34.1944773 31.2857143,36.9278107 32.5265306,36.5278107 C33.7020408,36.1278107 34.1591837,36.1278107 35.2040816,34.9944773 C36.0530612,33.9944773 37.8163265,34.5944773 38.5346939,35.1944773 C39.2530612,35.7944773 42.9102041,37.7944773 44.0204082,38.5278107 C45.0653061,39.261144 45,40.3944773 45,40.3944773 C45,40.3944773 42.844898,43.7278107 42.5836735,44.1278107 C42.2571429,44.5944773 41.4734694,44.9944773 39.7102041,44.9944773 C37.9469388,44.9944773 36.1836735,44.9944773 31.677551,42.1278107 C28.1510204,39.9278107 25.5387755,37.5944773 23.7102041,35.7944773 C21.8163265,33.9944773 17.8707908,30.3975047 15.9116071,26.530838 Z" id="Shape" fill="#FFFFFF"></path>
                </g>
                <g id="Maps" transform="translate(48.000000, 83.000000)">
                    <mask id="mask-14" fill="white">
                        <use xlink:href="#path-13"></use>
                    </mask>
                    <use id="Oval-55" fill="#FFFFFF" xlink:href="#path-13"></use>
                    <rect id="Rectangle-217" fill="#E7E0CD" mask="url(#mask-14)" x="-2" y="0" width="21" height="56"></rect>
                    <rect id="Rectangle-218" fill="#78C93A" mask="url(#mask-14)" x="38" y="0" width="18" height="19"></rect>
                    <rect id="Rectangle-218" fill="#FDC8D4" mask="url(#mask-14)" x="38" y="37" width="18" height="19"></rect>
                    <circle id="Oval-67" fill="#047DFD" mask="url(#mask-14)" cx="28.5" cy="28.5" r="14.5"></circle>
                    <polygon id="Path-370" fill="#FFFFFF" mask="url(#mask-14)" points="28.4978027 19.8066406 22.6401367 36.7397461 28.5603027 30.4887695 34.3911133 36.8508301"></polygon>
                </g>
                <g id="Settings" transform="translate(48.000000, 224.000000)">
                    <circle id="Oval-55" fill="url(#linearGradient-15)" cx="28.5" cy="28.5" r="28.5"></circle>
                    <path d="M39.9413402,10.6258198 C40.0002361,10.468611 39.933203,10.2749012 39.78444,10.1890129 L38.71556,9.57189472 C38.5700106,9.48786173 38.3654425,9.52490665 38.258824,9.65441858 L36.6303321,11.6325862 C36.5236332,11.7621958 36.3085347,11.8138167 36.1577324,11.7511416 L34.9283537,11.2401975 C34.7740429,11.1760642 34.6620846,10.9885936 34.6782604,10.8217513 L34.9253301,8.27340049 C34.9415181,8.10643239 34.8266234,7.93677574 34.6606999,7.89231668 L33.4685191,7.57287279 C33.3061798,7.52937412 33.1182454,7.6179374 33.0488728,7.77042741 L31.9892739,10.0995625 C31.919849,10.2521676 31.7253769,10.3577381 31.5633292,10.3364661 L30.2422748,10.163052 C30.076457,10.1412851 29.9196654,9.98942076 29.8921172,9.82413195 L29.4713465,7.2995077 C29.4437776,7.13409417 29.2888948,7 29.1171182,7 L27.8828818,7 C27.7148158,7 27.556183,7.13433087 27.5286118,7.29975758 L27.1074901,9.82648811 C27.0798982,9.99203965 26.9195133,10.1445141 26.7576705,10.1659361 L25.4382865,10.3405741 C25.2726784,10.3624945 25.0820083,10.2562502 25.0125301,10.1035281 L23.9513186,7.77084796 C23.8817879,7.61801062 23.6974044,7.52841373 23.5314809,7.57287279 L22.3393001,7.89231668 C22.1769609,7.93581535 22.0585065,8.10668669 22.0746977,8.27368701 L22.3220015,10.824453 C22.3382049,10.9915794 22.2226797,11.1802497 22.0718087,11.2426191 L20.8418697,11.7510702 C20.6874887,11.8148906 20.4757837,11.7614875 20.369193,11.6320094 L18.7411256,9.65435741 C18.6344545,9.52478154 18.433203,9.4860064 18.28444,9.57189472 L17.21556,10.1890129 C17.0700106,10.2730459 16.9997561,10.46859 17.0585431,10.6255084 L17.9564571,13.0222824 C18.0152885,13.1793192 17.9523732,13.3914287 17.8226717,13.4908746 L16.7653121,14.3015829 C16.6325931,14.4033424 16.4143049,14.4067646 16.2779814,14.3093907 L14.1957743,12.8220999 C14.059348,12.7246525 13.8550371,12.7393713 13.7335727,12.8608357 L12.8608357,13.7335727 C12.7419951,13.8524133 12.7247714,14.0595144 12.8222011,14.1959161 L14.3103452,16.2793178 C14.4078485,16.4158224 14.4022422,16.63707 14.3029812,16.7667494 L13.49378,17.8239293 C13.3922096,17.9566258 13.1823092,18.0164086 13.0252189,17.9575572 L10.6258198,17.0586598 C10.468611,16.9997639 10.2749012,17.066797 10.1890129,17.21556 L9.57189472,18.28444 C9.48786173,18.4299894 9.52490665,18.6345575 9.65441858,18.741176 L11.6325862,20.3696679 C11.7621958,20.4763668 11.8138167,20.6914653 11.7511416,20.8422676 L11.2401975,22.0716463 C11.1760642,22.2259571 10.9885936,22.3379154 10.8217513,22.3217396 L8.27340049,22.0746699 C8.10643239,22.0584819 7.93677574,22.1733766 7.89231668,22.3393001 L7.57287279,23.5314809 C7.52937412,23.6938202 7.6179374,23.8817546 7.77042741,23.9511272 L10.0995625,25.0107261 C10.2521676,25.080151 10.3577381,25.2746231 10.3364661,25.4366708 L10.163052,26.7577252 C10.1412851,26.923543 9.98942076,27.0803346 9.82413195,27.1078828 L7.2995077,27.5286535 C7.13409417,27.5562224 7,27.7111052 7,27.8828818 L7,29.1171182 C7,29.2851842 7.13433087,29.443817 7.29975758,29.4713882 L9.82648811,29.8925099 C9.99203965,29.9201018 10.1445141,30.0804867 10.1659361,30.2423295 L10.3405741,31.5617135 C10.3624945,31.7273216 10.2562502,31.9179917 10.1035281,31.9874699 L7.77084796,33.0486814 C7.61801062,33.1182121 7.52841373,33.3025956 7.57287279,33.4685191 L7.89231668,34.6606999 C7.93581535,34.8230391 8.10668669,34.9414935 8.27368701,34.9253023 L10.824453,34.6779985 C10.9915794,34.6617951 11.1802497,34.7773203 11.2426191,34.9281913 L11.7510702,36.1581303 C11.8148906,36.3125113 11.7614875,36.5242163 11.6320094,36.630807 L9.65435741,38.2588744 C9.52478154,38.3655455 9.4860064,38.566797 9.57189472,38.71556 L10.1890129,39.78444 C10.2730459,39.9299894 10.46859,40.0002439 10.6255084,39.9414569 L13.0222824,39.0435429 C13.1793192,38.9847115 13.3914287,39.0476268 13.4908746,39.1773283 L14.3015829,40.2346879 C14.4033424,40.3674069 14.4067646,40.5856951 14.3093907,40.7220186 L12.8220999,42.8042257 C12.7246525,42.940652 12.7393713,43.1449629 12.8608357,43.2664273 L13.7335727,44.1391643 C13.8524133,44.2580049 14.0595144,44.2752286 14.1959161,44.1777989 L16.2793178,42.6896548 C16.4158224,42.5921515 16.63707,42.5977578 16.7667494,42.6970188 L17.8239293,43.50622 C17.9566258,43.6077904 18.0164086,43.8176908 17.9575572,43.9747811 L17.0586598,46.3741802 C16.9997639,46.531389 17.066797,46.7250988 17.21556,46.8109871 L18.28444,47.4281053 C18.4299894,47.5121383 18.6345575,47.4750933 18.741176,47.3455814 L20.3696679,45.3674138 C20.4763668,45.2378042 20.6914653,45.1861833 20.8422676,45.2488584 L22.0716463,45.7598025 C22.2259571,45.8239358 22.3379154,46.0114064 22.3217396,46.1782487 L22.0746699,48.7265995 C22.0584819,48.8935676 22.1733766,49.0632243 22.3393001,49.1076833 L23.5314809,49.4271272 C23.6938202,49.4706259 23.8817546,49.3820626 23.9511272,49.2295726 L25.0107261,46.9004375 C25.080151,46.7478324 25.2746231,46.6422619 25.4366708,46.6635339 L26.7577252,46.836948 C26.923543,46.8587149 27.0803346,47.0105792 27.1078828,47.175868 L27.5286535,49.7004923 C27.5562224,49.8659058 27.7111052,50 27.8828818,50 L29.1171182,50 C29.2851842,50 29.443817,49.8656691 29.4713882,49.7002424 L29.8925099,47.1735119 C29.9201018,47.0079603 30.0804867,46.8554859 30.2423295,46.8340639 L31.5617135,46.6594259 C31.7273216,46.6375055 31.9179917,46.7437498 31.9874699,46.8964719 L33.0486814,49.229152 C33.1182121,49.3819894 33.3025956,49.4715863 33.4685191,49.4271272 L34.6606999,49.1076833 C34.8230391,49.0641846 34.9414935,48.8933133 34.9253023,48.726313 L34.6779985,46.175547 C34.6617951,46.0084206 34.7773203,45.8197503 34.9281913,45.7573809 L36.1581303,45.2489298 C36.3125113,45.1851094 36.5242163,45.2385125 36.630807,45.3679906 L38.2588744,47.3456426 C38.3655455,47.4752185 38.566797,47.5139936 38.71556,47.4281053 L39.78444,46.8109871 C39.9299894,46.7269541 40.0002439,46.53141 39.9414569,46.3744916 L39.0435429,43.9777176 C38.9847115,43.8206808 39.0476268,43.6085713 39.1773283,43.5091254 L40.2346879,42.6984171 C40.3674069,42.5966576 40.5856951,42.5932354 40.7220186,42.6906093 L42.8042257,44.1779001 C42.940652,44.2753475 43.1449629,44.2606287 43.2664273,44.1391643 L44.1391643,43.2664273 C44.2580049,43.1475867 44.2752286,42.9404856 44.1777989,42.8040839 L42.6896548,40.7206822 C42.5921515,40.5841776 42.5977578,40.36293 42.6970188,40.2332506 L43.50622,39.1760707 C43.6077904,39.0433742 43.8176908,38.9835914 43.9747811,39.0424428 L46.3741802,39.9413402 C46.531389,40.0002361 46.7250988,39.933203 46.8109871,39.78444 L47.4281053,38.71556 C47.5121383,38.5700106 47.4750933,38.3654425 47.3455814,38.258824 L45.3674138,36.6303321 C45.2378042,36.5236332 45.1861833,36.3085347 45.2488584,36.1577324 L45.7598025,34.9283537 C45.8239358,34.7740429 46.0114064,34.6620846 46.1782487,34.6782604 L48.7265995,34.9253301 C48.8935676,34.9415181 49.0632243,34.8266234 49.1076833,34.6606999 L49.4271272,33.4685191 C49.4706259,33.3061798 49.3820626,33.1182454 49.2295726,33.0488728 L46.9004375,31.9892739 C46.7478324,31.919849 46.6422619,31.7253769 46.6635339,31.5633292 L46.836948,30.2422748 C46.8587149,30.076457 47.0105792,29.9196654 47.175868,29.8921172 L49.7004923,29.4713465 C49.8659058,29.4437776 50,29.2888948 50,29.1171182 L50,27.8828818 C50,27.7148158 49.8656691,27.556183 49.7002424,27.5286118 L47.1735119,27.1074901 C47.0079603,27.0798982 46.8554859,26.9195133 46.8340639,26.7576705 L46.6594259,25.4382865 C46.6375055,25.2726784 46.7437498,25.0820083 46.8964719,25.0125301 L49.229152,23.9513186 C49.3819894,23.8817879 49.4715863,23.6974044 49.4271272,23.5314809 L49.1076833,22.3393001 C49.0641846,22.1769609 48.8933133,22.0585065 48.726313,22.0746977 L46.175547,22.3220015 C46.0084206,22.3382049 45.8197503,22.2226797 45.7573809,22.0718087 L45.2489298,20.8418697 C45.1851094,20.6874887 45.2385125,20.4757837 45.3679906,20.369193 L47.3456426,18.7411256 C47.4752185,18.6344545 47.5139936,18.433203 47.4281053,18.28444 L46.8109871,17.21556 C46.7269541,17.0700106 46.53141,16.9997561 46.3744916,17.0585431 L43.9777176,17.9564571 C43.8206808,18.0152885 43.6085713,17.9523732 43.5091254,17.8226717 L42.6984171,16.7653121 C42.5966576,16.6325931 42.5932354,16.4143049 42.6906093,16.2779814 L44.1779001,14.1957743 C44.2753475,14.059348 44.2606287,13.8550371 44.1391643,13.7335727 L43.2664273,12.8608357 C43.1475867,12.7419951 42.9404856,12.7247714 42.8040839,12.8222011 L40.7206822,14.3103452 C40.5841776,14.4078485 40.36293,14.4022422 40.2332506,14.3029812 L39.1760707,13.49378 C39.0433742,13.3922096 38.9835914,13.1823092 39.0424428,13.0252189 L39.9413402,10.6258198 L39.9413402,10.6258198 Z M42.6853077,24.5600182 C41.6874306,20.9685749 39.3353393,17.7509037 35.8522129,15.7399197 C32.3887892,13.7403111 28.4512709,13.3056948 24.8585182,14.2166577 C24.1663186,14.3921688 24.5724537,14.2960442 24.5724537,14.2960442 C23.6080072,14.6248864 23.2242723,15.6177723 23.7099915,16.5039265 C23.7099915,16.5039265 23.4298567,15.9928439 23.7317006,16.5435331 C25.1720579,19.1713449 28.0551584,24.4313215 28.0551584,24.4313215 C28.7072543,25.6210162 30.3354324,26.5626111 31.6937396,26.5343924 C31.6937396,26.5343924 38.0815265,26.4016864 41.2767785,26.3353052 C41.8704243,26.3229722 41.2767785,26.3353052 41.2767785,26.3353052 C42.2603631,26.3148712 42.8990231,25.4864818 42.6853077,24.5600182 C42.6853077,24.5600182 42.8439854,25.1311127 42.6853077,24.5600182 L42.6853077,24.5600182 L42.6853077,24.5600182 Z M24.5317847,42.7082757 C28.1241971,43.7026581 32.0936962,43.3437456 35.6113887,41.3938568 C39.1091829,39.4549979 41.5096936,36.3037299 42.5792504,32.7549592 C42.7853172,32.0712334 42.658537,32.468867 42.658537,32.468867 C42.8733909,31.4728087 42.2199597,30.6325097 41.2102134,30.5924491 C41.2102134,30.5924491 41.7925767,30.6155537 41.1650829,30.5906586 C38.1707697,30.4718626 32.1771832,30.2340739 32.1771832,30.2340739 C30.8215616,30.1802911 29.1758835,31.0909548 28.5004918,32.2697851 L23.7355129,40.5865901 C23.4403341,41.1017959 23.7355129,40.5865901 23.7355129,40.5865901 C23.2464447,41.440211 23.6275788,42.4143015 24.5317847,42.7082757 C24.5317847,42.7082757 23.960536,42.5501537 24.5317847,42.7082757 L24.5317847,42.7082757 L24.5317847,42.7082757 Z M18.172783,39.0463512 C15.5154163,36.432422 13.8414941,32.8152787 13.7713011,28.7939232 C13.7015051,24.7953152 15.2303279,21.1407779 17.768875,18.4401292 C18.2579656,17.9198072 17.9769949,18.2284189 17.9769949,18.2284189 C18.7321797,17.5443208 19.7866156,17.6900593 20.3261822,18.544495 C20.3261822,18.544495 20.0149914,18.0517058 20.3502981,18.5826839 C21.9503351,21.1164372 25.1530594,26.1881409 25.1530594,26.1881409 C25.8774474,27.3352523 25.9116286,29.2157832 25.2284275,30.3901048 C25.2284275,30.3901048 22.0154997,35.9126519 20.4083525,38.6751 C20.1097606,39.1883352 20.4083525,38.6751 20.4083525,38.6751 C19.9136292,39.525456 18.879475,39.6824294 18.172783,39.0463512 C18.172783,39.0463512 18.595345,39.462006 18.172783,39.0463512 L18.172783,39.0463512 L18.172783,39.0463512 Z" id="Gear" fill="#FFFFFF"></path>
                </g>
                <g id="Group" transform="translate(80.000000, 9.000000)">
                    <circle id="Oval-55" fill="url(#linearGradient-7)" cx="28.5" cy="28.5" r="28.5"></circle>
                    <circle id="Sun" fill="url(#linearGradient-16)" cx="20" cy="24" r="9"></circle>
                    <g id="Cloud">
                        <use fill="url(#linearGradient-17)" fill-rule="evenodd" xlink:href="#path-18"></use>
                        <use fill="black" fill-opacity="1" filter="url(#filter-19)" xlink:href="#path-18"></use>
                    </g>
                </g>
                <g id="Calendar" transform="translate(161.000000, 0.000000)">
                    <circle id="Oval-53" fill="#FFFFFF" cx="33" cy="33" r="33"></circle>
                    <path d="M31.8588867,21 L31.8588867,11.1357422 L30.4301758,11.1357422 L27.0532227,19.2978516 L26.9438477,19.2978516 L23.5668945,11.1357422 L22.1381836,11.1357422 L22.1381836,21 L23.2866211,21 L23.2866211,13.4667969 L23.3686523,13.4667969 L26.4790039,20.9316406 L27.5180664,20.9316406 L30.628418,13.4667969 L30.7104492,13.4667969 L30.7104492,21 L30.8847656,21 L31.284668,21 L31.6845703,21 L31.8588867,21 L31.8588867,21 Z M37.1020508,21.1298828 C38.1502331,21.1298828 38.9785126,20.7892287 39.5869141,20.1079102 C40.1953155,19.4265916 40.4995117,18.4957741 40.4995117,17.3154297 C40.4995117,16.1305279 40.1953155,15.1985711 39.5869141,14.5195312 C38.9785126,13.8404914 38.1502331,13.5009766 37.1020508,13.5009766 C36.0538685,13.5009766 35.225589,13.8404914 34.6171875,14.5195312 C34.008786,15.1985711 33.7045898,16.1305279 33.7045898,17.3154297 C33.7045898,18.4957741 34.008786,19.4265916 34.6171875,20.1079102 C35.225589,20.7892287 36.0538685,21.1298828 37.1020508,21.1298828 L37.1020508,21.1298828 Z M37.1020508,20.0703125 C36.4047817,20.0703125 35.8670266,19.8287785 35.4887695,19.3457031 C35.1105124,18.8626278 34.9213867,18.1858767 34.9213867,17.3154297 C34.9213867,16.4404253 35.1105124,15.762535 35.4887695,15.2817383 C35.8670266,14.8009416 36.4047817,14.5605469 37.1020508,14.5605469 C37.7993199,14.5605469 38.3370749,14.8009416 38.715332,15.2817383 C39.0935891,15.762535 39.2827148,16.4404253 39.2827148,17.3154297 C39.2827148,18.1858767 39.0935891,18.8626278 38.715332,19.3457031 C38.3370749,19.8287785 37.7993199,20.0703125 37.1020508,20.0703125 L37.1020508,20.0703125 Z M42.1948242,21 L43.3706055,21 L43.3706055,16.6386719 C43.3706055,15.9915332 43.5460594,15.4834003 43.8969727,15.1142578 C44.2478859,14.7451153 44.7172822,14.5605469 45.3051758,14.5605469 C45.8930693,14.5605469 46.3294257,14.7200505 46.6142578,15.0390625 C46.89909,15.3580745 47.0415039,15.8502571 47.0415039,16.515625 L47.0415039,21 L48.2172852,21 L48.2172852,16.2285156 C48.2172852,15.3535113 47.9951194,14.6801781 47.5507812,14.2084961 C47.1064431,13.736814 46.4695679,13.5009766 45.6401367,13.5009766 C45.0750297,13.5009766 44.6113299,13.6149077 44.2490234,13.8427734 C43.8867169,14.0706392 43.6121429,14.3873678 43.425293,14.7929688 L43.315918,14.7929688 L43.315918,13.6308594 L42.1948242,13.6308594 L42.1948242,14.3759766 L42.1948242,16.2182617 L42.1948242,18.4125977 L42.1948242,20.2548828 L42.1948242,21 L42.1948242,21 Z" id="Mon" fill="#F63C2A"></path>
                    <path d="M34.0859375,54.4570312 C37.4502121,54.4570312 40.0654204,53.1684699 41.9316406,50.5913086 C43.7978609,48.0141473 44.730957,44.4150622 44.730957,39.7939453 C44.730957,36.8232273 44.2802779,34.2968854 43.3789062,32.2148438 C41.6269444,28.1015419 38.5991426,26.0449219 34.2954102,26.0449219 C31.4770367,26.0449219 29.1506439,26.9304111 27.3161621,28.701416 C25.4816803,30.472421 24.5644531,32.716295 24.5644531,35.4331055 C24.5644531,38.0356575 25.4308995,40.2001867 27.1638184,41.9267578 C28.8967372,43.6533289 31.0707877,44.5166016 33.6860352,44.5166016 C35.437997,44.5166016 37.0090263,44.1071818 38.3991699,43.2883301 C39.7893136,42.4694783 40.7763643,41.3808662 41.3603516,40.0224609 L41.3603516,40.0224609 L41.3603516,40.0224609 L41.3793945,40.0224609 L41.3984375,40.0224609 L41.407959,40.0224609 L41.4174805,40.0224609 C41.366699,43.6660338 40.7097231,46.484365 39.4465332,48.4775391 C38.1833433,50.4707131 36.4091911,51.4672852 34.1240234,51.4672852 C32.7656182,51.4672852 31.5722708,51.0896034 30.5439453,50.3342285 C29.5156199,49.5788536 28.8173847,48.5791078 28.4492188,47.3349609 L24.9643555,47.3349609 C25.3833029,49.4804795 26.4243081,51.2038509 28.0874023,52.505127 C29.7504966,53.806403 31.7499883,54.4570312 34.0859375,54.4570312 L34.0859375,54.4570312 Z M34.2763672,41.5078125 C32.4736238,41.5078125 30.9819395,40.923834 29.8012695,39.7558594 C28.6205996,38.5878848 28.0302734,37.1088957 28.0302734,35.3188477 C28.0302734,33.5922765 28.6396423,32.1291564 29.8583984,30.9294434 C31.0771545,29.7297303 32.5688388,29.1298828 34.3334961,29.1298828 C36.1108487,29.1298828 37.602533,29.7360779 38.8085938,30.9484863 C40.0146545,32.1608947 40.6176758,33.6494052 40.6176758,35.4140625 C40.6176758,37.1660244 40.0146545,38.6196231 38.8085938,39.7749023 C37.602533,40.9301816 36.091806,41.5078125 34.2763672,41.5078125 L34.2763672,41.5078125 Z" id="9" fill="#262628"></path>
                </g>
                <g id="Remote" transform="translate(329.000000, 156.000000)">
                    <use id="Oval-55" stroke="#FFFFFF" mask="url(#mask-22)" stroke-width="8" fill="url(#linearGradient-20)" xlink:href="#path-21"></use>
                    <path d="M21.1577148,20.238629 L21.1577148,36.4984481 C21.1577148,38.156859 22.346977,38.8732571 23.8112869,38.100004 L38.7224045,30.2259416 C40.1879319,29.4520456 40.2163372,28.1599874 38.7741833,27.3333618 L23.7595081,18.7271277 C22.3225774,17.9034959 21.1577148,18.5784727 21.1577148,20.238629 Z" id="Play" fill="#FFFFFF"></path>
                </g>
                <g id="Camera" transform="translate(251.000000, 9.000000)">
                    <mask id="mask-25" fill="white">
                        <use xlink:href="#path-24"></use>
                    </mask>
                    <use id="Oval-55" fill="url(#linearGradient-23)" xlink:href="#path-24"></use>
                    <g mask="url(#mask-25)">
                        <use fill="url(#linearGradient-26)" fill-rule="evenodd" xlink:href="#path-27"></use>
                        <use fill="black" fill-opacity="1" filter="url(#filter-28)" xlink:href="#path-27"></use>
                    </g>
                    <path d="M71,54 C71,45.163444 63.836556,38 55,38 C46.163444,38 39,45.163444 39,54 C39,62.836556 46.163444,70 55,70 C63.836556,70 71,62.836556 71,54 L71,54 Z M41,54 C41,46.2680135 47.2680135,40 55,40 C62.7319865,40 69,46.2680135 69,54 C69,61.7319865 62.7319865,68 55,68 C47.2680135,68 41,61.7319865 41,54 L41,54 Z" id="Oval-68" fill="#979797" mask="url(#mask-25)"></path>
                    <circle id="Oval-68" fill="#FEDD1E" mask="url(#mask-25)" cx="38" cy="39" r="2"></circle>
                </g>
                <g id="Workout" transform="translate(251.000000, 300.000000)">
                    <circle id="Oval-55" fill="#B7F644" cx="28.5" cy="28.5" r="28.5"></circle>
                    <path d="M22.1005162,18.4458753 C21.0632974,18.5423076 20.1654896,19.4386981 20.0949122,20.4522435 L19.6117294,27.3911253 C19.5836667,27.7941282 19.8965846,28.1339267 20.3116873,28.150127 L21.6394384,28.2019454 C22.0540772,28.2181276 22.4159715,27.9076332 22.4485863,27.4979571 L22.8972285,21.8625406 C22.9294698,21.4575564 23.2886651,21.0905485 23.7002929,21.0427149 L25.8908386,20.7881606 C26.3021176,20.7403675 26.5435756,21.0161384 26.4298945,21.4049865 L21.8068235,37.2182823 C21.749935,37.4128704 21.5858464,37.6887231 21.4409204,37.833817 L14.7184968,44.5640244 C14.4284724,44.8543847 14.4267754,45.3272913 14.7157852,45.6213887 L15.8520215,46.7776269 C16.1405483,47.0712328 16.6105934,47.0744833 16.9017048,46.7850776 L23.8831088,39.8445803 C24.1743061,39.5550892 24.5097176,39.0079027 24.6333923,38.6188788 L26.8031731,31.7937438 C26.926346,31.4062987 27.3004063,31.2879241 27.6323153,31.5248181 L32.8016717,35.2143532 C33.1364215,35.4532748 33.1241877,35.8263466 32.7779664,36.045343 L25.9732487,40.3495503 C25.45137,40.6796557 25.3430767,41.3298449 25.7328946,41.8036429 L26.3382601,42.539425 C26.7273949,43.0123928 27.4672014,43.1259019 27.9871056,42.7952181 L36.6890324,37.260379 C37.7342034,36.5956006 37.8093479,35.4188066 36.8599429,34.6344729 L31.4011416,30.1247832 C31.0826381,29.8616574 30.9139245,29.3312868 31.0238983,28.9416236 L31.9572787,25.6344358 C32.0674365,25.2441207 32.3037129,25.2258711 32.481979,25.5875114 L34.0197562,28.7071312 C34.1993824,29.0715307 34.6391799,29.206734 35.0028134,29.0087122 L41.6958089,25.3639468 C42.6041399,24.8693024 42.7685291,23.8687685 42.0581776,23.1241552 C41.650875,22.6972075 40.8686307,22.587397 40.3328237,22.8945167 L36.2528232,25.2331356 C35.8946204,25.4384541 35.4760066,25.2992579 35.318912,24.9248279 L33.0753659,19.5774045 C32.9177837,19.2018123 32.5361716,18.6757642 32.2285264,18.4072566 L31.855016,18.081263 C31.5449016,17.8106003 30.9561251,17.6225517 30.5412507,17.6611234 L22.1005162,18.4458753 Z M35.6102203,13.1153601 C35.6102203,11.3947942 34.1760086,10 32.4068188,10 C30.637629,10 29.2034172,11.3947942 29.2034172,13.1153601 C29.2034172,14.835926 30.637629,16.2307203 32.4068188,16.2307203 C34.1760086,16.2307203 35.6102203,14.835926 35.6102203,13.1153601 L35.6102203,13.1153601 Z" fill="#262628"></path>
                </g>
                <g id="Passbook" transform="translate(290.000000, 223.000000)">
                    <mask id="mask-30" fill="white">
                        <use xlink:href="#path-29"></use>
                    </mask>
                    <use id="Oval-55" fill="#F54741" xlink:href="#path-29"></use>
                    <rect id="Rectangle-230" fill="url(#linearGradient-31)" mask="url(#mask-30)" x="-1" y="0" width="60" height="15"></rect>
                    <rect id="Rectangle-230" fill="url(#linearGradient-32)" mask="url(#mask-30)" x="-1" y="15" width="60" height="14"></rect>
                    <rect id="Rectangle-230" fill="url(#linearGradient-33)" mask="url(#mask-30)" x="-1" y="29" width="60" height="14"></rect>
                    <g id="Rectangle-268" mask="url(#mask-30)">
                        <use fill="black" fill-opacity="1" filter="url(#filter-36)" xlink:href="#path-35"></use>
                        <use fill="url(#linearGradient-34)" fill-rule="evenodd" xlink:href="#path-35"></use>
                    </g>
                    <path d="M29.981982,20.7058824 L33.1891892,20.7058824 C33.6486486,20.7058824 34,21.05 34,21.5 C34,21.95 33.6486486,22.2941176 33.1891892,22.2941176 L29.981982,22.2941176 L26.7027027,26 L25.8918919,26 L27.6576577,22.2941176 L25.042471,22.2941176 L24.2702703,23.6176471 L24,23.6176471 L24,19.3823529 L24.2702703,19.3823529 L25.042471,20.7058824 L27.6576577,20.7058824 L25.8918919,17 L26.7027027,17 L29.981982,20.7058824 Z" id="Shape-2" fill="#FFFFFF" mask="url(#mask-30)"></path>
                    <path d="M24.4867033,48.5778186 C25.1648908,50.0256924 26.6351693,51.0285587 28.3396797,51.0285587 C30.6882043,51.0285587 32.5920596,49.1247034 32.5920596,46.7761789 L24.0872998,46.7761789 C23.5654055,46.7761789 23.1423265,47.1992578 23.1423265,47.7211522 C23.1423265,48.2430465 23.5654055,48.6661255 24.0872998,48.6661255 C24.2300371,48.6661255 24.3653828,48.6344786 24.4867033,48.5778186 Z M25.5047598,51.5010454 L25.5047598,51.9735321 L31.1745997,51.9735321 L31.1745997,51.5010454 L25.5047598,51.5010454 Z" id="Coffee-Cup-Icon" fill="#FFFFFF" mask="url(#mask-30)"></path>
                    <path d="M25.0872998,35.4364991 L25.0872998,39.2163924 L30.7571397,39.2163924 L30.7571397,35.4364991 L25.0872998,35.4364991 Z M33.119573,34.7277691 L31.2296263,36.3814724 L31.2296263,37.7989324 L33.119573,39.4526357 L33.119573,34.7277691 Z M27.4497331,33.0740659 C27.4497331,32.0302772 26.6035752,31.1841192 25.5597865,31.1841192 C24.5159978,31.1841192 23.6698399,32.0302772 23.6698399,33.0740659 C23.6698399,34.1178546 24.5159978,34.9640125 25.5597865,34.9640125 C26.6035752,34.9640125 27.4497331,34.1178546 27.4497331,33.0740659 Z M32.1745997,33.0740659 C32.1745997,32.0302772 31.3284417,31.1841192 30.284653,31.1841192 C29.2408643,31.1841192 28.3947064,32.0302772 28.3947064,33.0740659 C28.3947064,34.1178546 29.2408643,34.9640125 30.284653,34.9640125 C31.3284417,34.9640125 32.1745997,34.1178546 32.1745997,33.0740659 Z" id="Video-Camera-Icon" fill="#FFFFFF" mask="url(#mask-30)"></path>
                    <path d="M24.0872998,6.14232652 L24.0872998,5.72696853 C24.0872998,5.16798996 24.5354862,4.72486655 25.0883521,4.72486655 L31.1185207,4.72486655 C31.664709,4.72486655 32.119573,5.17352289 32.119573,5.72696853 L32.119573,6.14232652 L24.0872998,6.14232652 Z M24.0872998,7.08729983 L24.0872998,8.92011778 C24.0872998,9.47356342 24.5421637,9.92221976 25.0883521,9.92221976 L31.1185207,9.92221976 C31.6713866,9.92221976 32.119573,9.47909635 32.119573,8.92011778 L32.119573,7.08729983 L24.0872998,7.08729983 Z" id="Credit-Card-Icon" fill="#FFFFFF" mask="url(#mask-30)"></path>
                </g>
                <g id="Alarm" transform="translate(3.000000, 101.000000)">
                    <circle id="Oval-93" fill="#FF940B" cx="15" cy="15" r="15"></circle>
                    <g id="alarm" transform="translate(6.000000, 6.000000)">
                        <ellipse id="Oval-99" fill="#FF5B15" cx="8.85" cy="9.61016949" rx="7.95" ry="8.08474576"></ellipse>
                        <path d="M3.77859937,16.0335181 C5.16668223,17.1683622 6.93035725,17.8474576 8.85,17.8474576 C10.7484488,17.8474576 12.4943548,17.1832746 13.8752878,16.0709392 L15.6205391,17.845771 L16.2569352,17.1985885 L14.5499942,15.4627163 C16.0319996,13.9699088 16.95,11.8990614 16.95,9.61016949 C16.95,5.06084087 13.3235065,1.37288136 8.85,1.37288136 C4.37649353,1.37288136 0.75,5.06084087 0.75,9.61016949 C0.75,11.8776179 1.65088033,13.9310881 3.10850195,15.4206082 L1.32831183,17.230971 L1.96470793,17.8781535 L3.77859937,16.0335181 Z M1.65,9.61016949 C1.65,5.56632183 4.8735498,2.28813559 8.85,2.28813559 C12.8264502,2.28813559 16.05,5.56632183 16.05,9.61016949 C16.05,13.6540172 12.8264502,16.9322034 8.85,16.9322034 C4.8735498,16.9322034 1.65,13.6540172 1.65,9.61016949 Z M8.76826172,10.084071 L9.21826172,9.62644386 L5.79968838,9.62644386 L5.79968838,10.5416981 L9.21826172,10.5416981 L9.66826172,10.5416981 L9.66826172,10.084071 L9.66826172,4.38410355 L8.76826172,4.38410355 L8.76826172,10.084071 Z" id="Oval-99" fill="#FFFFFF"></path>
                        <path d="M0.360936896,5.07253723 C0.734472656,5.67907508 5.82685547,0.981842558 5.55858322,0.731342224 C5.01972611,0.228182145 4.24408685,0 3.45,0 C1.54461761,0 0,1.57079757 0,3.50847458 C0,4.07048433 0.0845658952,4.62377305 0.360936896,5.07253723 Z" id="Oval-100" fill="#FFFFFF"></path>
                        <path d="M12.6609369,5.07253723 C13.0344727,5.67907508 18.1268555,0.981842558 17.8585832,0.731342224 C17.3197261,0.228182145 16.5440868,0 15.75,0 C13.8446176,0 12.3,1.57079757 12.3,3.50847458 C12.3,4.07048433 12.3845659,4.62377305 12.6609369,5.07253723 Z" id="Oval-100" fill="#FFFFFF" transform="translate(15.084408, 2.563272) scale(-1, 1) translate(-15.084408, -2.563272) "></path>
                    </g>
                </g>
                <g id="Stocks" transform="translate(80.000000, 299.000000)">
                    <mask id="mask-38" fill="white">
                        <use xlink:href="#path-37"></use>
                    </mask>
                    <use id="Oval-93" fill="#3D3D3D" xlink:href="#path-37"></use>
                    <circle id="Oval-96" fill="#156A92" mask="url(#mask-38)" cx="28.5" cy="17.1" r="2.85"></circle>
                    <polygon id="Path-393" fill="#156A92" mask="url(#mask-38)" points="27.2837402 12.2238113 30.1337402 12.2238113 30.1337402 -0.235876465 27.2837402 -0.235876465"></polygon>
                    <polygon id="Path-394" fill="#156A92" mask="url(#mask-38)" points="27.1598877 57.2659029 30.0098877 57.2659029 30.0098877 23.7309814 27.1598877 23.7309814"></polygon>
                    <polygon id="Path-392" fill="#979797" mask="url(#mask-38)" points="3.4554229 36.4147103 4.89346679 37.4283116 5.586261 35.8110936 9.49874879 26.6780126 6.83455704 26.5600933 9.9197377 35.9874981 10.0913742 36.5119687 10.57148 36.7840477 15.2653521 39.4440941 16.4467479 40.1135984 17.1723994 38.9658344 21.2943232 32.4461811 20.3509668 33.0855535 24.6663233 32.2812078 25.4857483 32.128474 25.7542543 31.3393672 29.0328675 21.703918 26.5528516 22.1117893 32.9486524 30.4558323 33.8387033 31.617004 34.9760243 30.6966719 38.2546376 28.0435835 36.1922686 27.7550689 40.2675737 33.5552642 41.5842681 35.429255 42.6836436 33.4200514 47.7483775 24.1638136 47.215546 24.7111189 49.4205386 23.4266707 48.8328977 23.6144411 50.8667234 23.4286623 49.9439268 23.1934224 53.0833799 25.2968281 53.7735924 25.7592644 54.5160424 25.386426 57.7181176 23.7784304 56.4391333 21.2315305 53.2370581 22.8395261 54.6697207 22.929124 51.5302676 20.8257182 51.1105679 20.5445232 50.6074709 20.5904783 48.5736452 20.7762571 47.9860043 20.9640275 45.7810116 22.2484758 45.4384679 22.4480137 45.2481801 22.7957811 40.1834462 32.0520189 42.5995161 31.9168061 38.5242109 26.1166108 37.6474198 24.8687141 36.4618419 25.8280962 33.1832287 28.4811846 35.2106005 28.7220242 28.8147997 20.3779812 27.193353 18.2626212 26.3347838 20.7858525 23.0561705 30.4213017 24.1441015 29.4794611 19.8287451 30.2838068 19.2176008 30.3977189 18.8853887 30.9231792 14.7634649 37.4428325 16.6705121 36.9645729 11.9766401 34.3045265 12.6283824 35.1010761 9.54320175 25.6736714 8.3675067 22.081093 6.87900999 25.5557521 2.9665222 34.6888331 5.0973603 34.0852165 0.905856394 31.1308463 -0.736081003 33.4603402"></polygon>
                </g>
                <g id="Stopwatch" transform="translate(362.000000, 233.000000)">
                    <circle id="Oval-93" fill="url(#linearGradient-11)" cx="15" cy="15" r="15"></circle>
                    <g id="Oval-97-+-Path-399" transform="translate(6.000000, 6.000000)">
                        <path d="M9,16.6153846 C13.2058608,16.6153846 16.6153846,13.2058608 16.6153846,9 C16.6153846,4.79413921 13.2058608,1.38461538 9,1.38461538 C4.79413921,1.38461538 1.38461538,4.79413921 1.38461538,9 C1.38461538,13.2058608 4.79413921,16.6153846 9,16.6153846 Z" id="Oval-98" fill="#FF721A"></path>
                        <path d="M9.5411948,1.66389385 C13.2504817,2.05270253 16.1415925,5.18970088 16.1415925,9.00195433 C16.1415925,13.0770484 12.838076,16.3805649 8.76298197,16.3805649 C4.6878879,16.3805649 1.38437144,13.0770484 1.38437144,9.00195433 C1.38437144,7.06505207 2.13067688,5.30245879 3.35141643,3.98604582 L2.40221237,3.03684175 C0.938965445,4.59652187 0.0428058894,6.69458346 0.0428058894,9.00195433 C0.0428058894,13.8179746 3.94696171,17.7221304 8.76298197,17.7221304 C13.5790022,17.7221304 17.4831581,13.8179746 17.4831581,9.00195433 C17.4831581,4.18593406 13.5790022,0.281778245 8.76298197,0.281778245 C8.58171347,0.281778245 8.40173678,0.287309138 8.22321146,0.298211369 L8.22321146,1.02461776 L8.19962925,1.02461776 L8.19962925,4.86131182 L9.5411948,4.86131182 L9.5411948,1.66389385 Z" id="Oval-97" fill="#FFFFFF"></path>
                        <path d="M9.1270206,8.35191216 L4.95782305,5.74231865 L7.61983834,9.98584555 C7.65020801,10.0446658 7.68536726,10.1006111 7.72480028,10.1531657 L7.72644737,10.1557913 L7.72663824,10.1556087 C7.94253313,10.4418061 8.28544141,10.6268069 8.67155894,10.6268069 C9.32484637,10.6268069 9.85444047,10.0972128 9.85444047,9.44392538 C9.85444047,8.95205042 9.55421746,8.53029629 9.1270206,8.35191216 Z" id="Path-399" fill="#FFFFFF"></path>
                    </g>
                </g>
            </g>
            <g id="Group-2" transform="translate(308.000000, 247.000000)">
                <use id="Oval-3" stroke="#F2316A" mask="url(#mask-40)" stroke-width="16" xlink:href="#path-39"></use>
                <g id="Oval-50">
                    <use fill="black" fill-opacity="1" filter="url(#filter-42)" xlink:href="#path-41"></use>
                    <use fill="#F2316A" fill-rule="evenodd" xlink:href="#path-41"></use>
                </g>
                <use id="Oval-3-Copy" stroke="#C7FC34" mask="url(#mask-44)" stroke-width="14.6000004" xlink:href="#path-43"></use>
                <g id="Oval-50">
                    <use fill="black" fill-opacity="1" filter="url(#filter-46)" xlink:href="#path-45"></use>
                    <use fill="#C7FC34" fill-rule="evenodd" xlink:href="#path-45"></use>
                </g>
                <use id="Oval-3-Copy-2" stroke="#2BF8C2" mask="url(#mask-48)" stroke-width="12" xlink:href="#path-47"></use>
                <g id="Oval-50">
                    <use fill="black" fill-opacity="1" filter="url(#filter-50)" xlink:href="#path-49"></use>
                    <use fill="#2BF8C2" fill-rule="evenodd" xlink:href="#path-49"></use>
                </g>
            </g>
        </g>
    </g>
</svg>